<?xml version="1.0" encoding="utf-8"?>
<svg version="1.1" xmlns="http://www.w3.org/2000/svg" xmlns:xlink="http://www.w3.org/1999/xlink" x="0px" y="0px" viewBox="0 0 1000 1000" enable-background="new 0 0 1000 1000" xml:space="preserve">
<path fill="white" d="M885,80c21,0,35,14,35,35v770c0,21-14,35-35,35H115c-21,0-35-14-35-35V115c0-21,14-35,35-35H885 M885,10H115C55.5,10,10,55.5,10,115v770c0,59.5,45.5,105,105,105h770c59.5,0,105-45.5,105-105V115C990,55.5,944.5,10,885,10L885,10z"/><path fill="white" d="M570,185l87.5,87.5L535,395l70,70l122.5-122.5L815,430V185H570z M395,535L272.5,657.5L185,570v245h245l-87.5-87.5L465,605L395,535z"/>
</svg>